%TF.GenerationSoftware,KiCad,Pcbnew,(5.1.6)-1*%
%TF.CreationDate,2021-02-11T15:37:54+05:30*%
%TF.ProjectId,Valance_Panel,56616c61-6e63-4655-9f50-616e656c2e6b,rev?*%
%TF.SameCoordinates,Original*%
%TF.FileFunction,Copper,L2,Bot*%
%TF.FilePolarity,Positive*%
%FSLAX46Y46*%
G04 Gerber Fmt 4.6, Leading zero omitted, Abs format (unit mm)*
G04 Created by KiCad (PCBNEW (5.1.6)-1) date 2021-02-11 15:37:54*
%MOMM*%
%LPD*%
G01*
G04 APERTURE LIST*
%TA.AperFunction,EtchedComponent*%
%ADD10C,0.010000*%
%TD*%
%TA.AperFunction,ComponentPad*%
%ADD11C,6.250000*%
%TD*%
%TA.AperFunction,ComponentPad*%
%ADD12C,5.000000*%
%TD*%
%TA.AperFunction,ComponentPad*%
%ADD13C,3.000000*%
%TD*%
%TA.AperFunction,ComponentPad*%
%ADD14C,3.200000*%
%TD*%
%TA.AperFunction,ComponentPad*%
%ADD15C,0.400000*%
%TD*%
G04 APERTURE END LIST*
D10*
%TO.C,G\u002A\u002A\u002A*%
G36*
X45650000Y-64250000D02*
G01*
X-45650000Y-64250000D01*
X-45650000Y-16525000D01*
X-40050000Y-16525000D01*
X-40050000Y-21300000D01*
X-32675000Y-21300000D01*
X-32675000Y-16525000D01*
X-40050000Y-16525000D01*
X-45650000Y-16525000D01*
X-45650000Y1221987D01*
X-39443903Y1221987D01*
X-39413158Y822239D01*
X-39331695Y337301D01*
X-39203451Y-133083D01*
X-39030232Y-586159D01*
X-38813843Y-1019174D01*
X-38556091Y-1429374D01*
X-38258782Y-1814007D01*
X-37923722Y-2170320D01*
X-37552716Y-2495559D01*
X-37147571Y-2786970D01*
X-36975409Y-2894012D01*
X-36595127Y-3096535D01*
X-36192083Y-3264029D01*
X-35761619Y-3397988D01*
X-35299080Y-3499906D01*
X-34900000Y-3559718D01*
X-34811965Y-3565557D01*
X-34685250Y-3567523D01*
X-34530993Y-3566041D01*
X-34360329Y-3561534D01*
X-34184396Y-3554426D01*
X-34014329Y-3545142D01*
X-33861265Y-3534104D01*
X-33736340Y-3521737D01*
X-33675000Y-3513101D01*
X-33181532Y-3404902D01*
X-32708065Y-3251994D01*
X-32256935Y-3056122D01*
X-31830474Y-2819031D01*
X-31431017Y-2542467D01*
X-31060898Y-2228176D01*
X-30722450Y-1877902D01*
X-30418006Y-1493391D01*
X-30149902Y-1076388D01*
X-29975521Y-746360D01*
X-29783317Y-292389D01*
X-29638518Y172556D01*
X-29540704Y645072D01*
X-29489457Y1121754D01*
X-29484355Y1599200D01*
X-29524979Y2074004D01*
X-29610909Y2542764D01*
X-29741725Y3002075D01*
X-29917007Y3448533D01*
X-30136335Y3878736D01*
X-30399289Y4289278D01*
X-30634333Y4593573D01*
X-30960572Y4951034D01*
X-31307139Y5265559D01*
X-31680576Y5542276D01*
X-32087428Y5786311D01*
X-32287500Y5888955D01*
X-32745326Y6085405D01*
X-33214397Y6233986D01*
X-33691592Y6334690D01*
X-34173786Y6387510D01*
X-34657854Y6392438D01*
X-35140674Y6349466D01*
X-35619120Y6258588D01*
X-36090069Y6119795D01*
X-36550397Y5933080D01*
X-36621361Y5899480D01*
X-37056733Y5662298D01*
X-37461025Y5387710D01*
X-37832641Y5078611D01*
X-38169990Y4737902D01*
X-38471477Y4368479D01*
X-38735509Y3973241D01*
X-38960492Y3555085D01*
X-39144833Y3116911D01*
X-39286938Y2661616D01*
X-39385214Y2192098D01*
X-39438067Y1711256D01*
X-39443903Y1221987D01*
X-45650000Y1221987D01*
X-45650000Y9479087D01*
X-3925221Y9479087D01*
X-3881985Y9051296D01*
X-3792756Y8638131D01*
X-3659117Y8242345D01*
X-3482651Y7866693D01*
X-3264938Y7513928D01*
X-3007563Y7186803D01*
X-2712107Y6888073D01*
X-2380154Y6620490D01*
X-2013285Y6386808D01*
X-1837500Y6293583D01*
X-1450135Y6127804D01*
X-1047304Y6008994D01*
X-631730Y5937547D01*
X-206138Y5913860D01*
X226750Y5938327D01*
X425000Y5965443D01*
X752891Y6037859D01*
X1091211Y6148540D01*
X1426175Y6292005D01*
X1743999Y6462773D01*
X1862500Y6537011D01*
X2198643Y6786614D01*
X2502654Y7072193D01*
X2772092Y7389564D01*
X3004517Y7734543D01*
X3197490Y8102945D01*
X3348570Y8490585D01*
X3455319Y8893280D01*
X3515295Y9306844D01*
X3520880Y9381250D01*
X3525705Y9725795D01*
X27761106Y9725795D01*
X27762511Y9481965D01*
X27774696Y9248388D01*
X27797679Y9039445D01*
X27819537Y8918538D01*
X27934365Y8496187D01*
X28086143Y8105568D01*
X28277150Y7742387D01*
X28509662Y7402348D01*
X28785958Y7081159D01*
X28804492Y7061861D01*
X29103614Y6779682D01*
X29414069Y6542291D01*
X29743351Y6344621D01*
X30098950Y6181609D01*
X30117054Y6174473D01*
X30525787Y6039129D01*
X30936561Y5952875D01*
X31352865Y5915336D01*
X31778189Y5926139D01*
X32087797Y5962986D01*
X32501097Y6052482D01*
X32898110Y6188804D01*
X33276703Y6370823D01*
X33634743Y6597410D01*
X33970097Y6867435D01*
X34179024Y7069998D01*
X34456504Y7393558D01*
X34690861Y7738628D01*
X34882187Y8101576D01*
X35030576Y8478770D01*
X35136120Y8866574D01*
X35198915Y9261358D01*
X35219052Y9659486D01*
X35196625Y10057326D01*
X35131729Y10451245D01*
X35024455Y10837609D01*
X34874898Y11212785D01*
X34683151Y11573141D01*
X34449307Y11915042D01*
X34173460Y12234856D01*
X34042921Y12363771D01*
X33716912Y12636627D01*
X33360014Y12871652D01*
X32976347Y13066715D01*
X32570031Y13219685D01*
X32200000Y13317152D01*
X32062601Y13338499D01*
X31888153Y13353674D01*
X31689190Y13362676D01*
X31478246Y13365504D01*
X31267856Y13362158D01*
X31070555Y13352638D01*
X30898877Y13336943D01*
X30775000Y13317191D01*
X30346933Y13202402D01*
X29946296Y13046056D01*
X29571388Y12847234D01*
X29220508Y12605016D01*
X28891953Y12318482D01*
X28848923Y12276062D01*
X28564196Y11961231D01*
X28324104Y11629384D01*
X28126157Y11275913D01*
X27967864Y10896209D01*
X27846734Y10485665D01*
X27821387Y10375000D01*
X27790562Y10186693D01*
X27770462Y9965498D01*
X27761106Y9725795D01*
X3525705Y9725795D01*
X3526943Y9814198D01*
X3487394Y10229400D01*
X3401333Y10631488D01*
X3267863Y11025093D01*
X3150914Y11287500D01*
X2943388Y11656646D01*
X2696893Y11997342D01*
X2415064Y12306946D01*
X2101536Y12582814D01*
X1759947Y12822306D01*
X1393932Y13022777D01*
X1007126Y13181586D01*
X603166Y13296091D01*
X315820Y13347957D01*
X109080Y13367536D01*
X-127272Y13374860D01*
X-374461Y13370281D01*
X-613716Y13354154D01*
X-826262Y13326831D01*
X-828766Y13326403D01*
X-1240208Y13231564D01*
X-1632615Y13092914D01*
X-2003300Y12913412D01*
X-2349578Y12696019D01*
X-2668764Y12443695D01*
X-2958171Y12159398D01*
X-3215115Y11846088D01*
X-3436909Y11506726D01*
X-3620869Y11144271D01*
X-3764307Y10761682D01*
X-3864540Y10361919D01*
X-3918881Y9947943D01*
X-3920881Y9918750D01*
X-3925221Y9479087D01*
X-45650000Y9479087D01*
X-45650000Y18077964D01*
X-39444716Y18077964D01*
X-39438788Y17610362D01*
X-39389198Y17149896D01*
X-39297500Y16699233D01*
X-39165247Y16261045D01*
X-38993994Y15837998D01*
X-38785292Y15432764D01*
X-38540695Y15048010D01*
X-38261756Y14686407D01*
X-37950030Y14350623D01*
X-37607068Y14043328D01*
X-37234425Y13767191D01*
X-36833653Y13524880D01*
X-36406306Y13319066D01*
X-35953938Y13152417D01*
X-35478101Y13027602D01*
X-35412500Y13014173D01*
X-35049426Y12959148D01*
X-34662637Y12931079D01*
X-34270927Y12930593D01*
X-33893086Y12958316D01*
X-33858915Y12962400D01*
X-33367180Y13048082D01*
X-32890785Y13180862D01*
X-32432238Y13359513D01*
X-31994046Y13582808D01*
X-31578716Y13849520D01*
X-31188756Y14158421D01*
X-30940650Y14390650D01*
X-30610686Y14754597D01*
X-30322596Y15142577D01*
X-30076560Y15551321D01*
X-29872756Y15977559D01*
X-29711365Y16418021D01*
X-29592566Y16869438D01*
X-29516538Y17328540D01*
X-29483460Y17792059D01*
X-29493513Y18256725D01*
X-29546874Y18719267D01*
X-29643724Y19176417D01*
X-29784242Y19624905D01*
X-29968608Y20061462D01*
X-30197001Y20482819D01*
X-30469599Y20885705D01*
X-30576722Y21023278D01*
X-30912817Y21400830D01*
X-31279088Y21738935D01*
X-31673634Y22036495D01*
X-32094552Y22292418D01*
X-32539939Y22505608D01*
X-33007895Y22674969D01*
X-33496516Y22799407D01*
X-33737500Y22842807D01*
X-33916780Y22864051D01*
X-34128707Y22878164D01*
X-34359715Y22885163D01*
X-34596237Y22885063D01*
X-34824706Y22877884D01*
X-35031557Y22863640D01*
X-35203222Y22842350D01*
X-35211427Y22840966D01*
X-35714559Y22732318D01*
X-36189452Y22583376D01*
X-36639193Y22392813D01*
X-37066867Y22159307D01*
X-37475561Y21881532D01*
X-37512500Y21853565D01*
X-37621503Y21764190D01*
X-37752410Y21647341D01*
X-37894517Y21513447D01*
X-38037119Y21372939D01*
X-38169511Y21236244D01*
X-38280990Y21113793D01*
X-38324451Y21062500D01*
X-38568172Y20734098D01*
X-38792136Y20370879D01*
X-38988836Y19986505D01*
X-39150762Y19594636D01*
X-39185001Y19496888D01*
X-39319376Y19023896D01*
X-39405430Y18550032D01*
X-39444716Y18077964D01*
X-45650000Y18077964D01*
X-45650000Y40035141D01*
X-38187534Y40035141D01*
X-38180040Y39821808D01*
X-38164955Y39628755D01*
X-38142281Y39469924D01*
X-38141004Y39463408D01*
X-38031128Y39034294D01*
X-37877579Y38628114D01*
X-37681718Y38246922D01*
X-37444909Y37892770D01*
X-37168512Y37567711D01*
X-36853890Y37273797D01*
X-36525000Y37028079D01*
X-36164682Y36816380D01*
X-35779456Y36646776D01*
X-35368000Y36518795D01*
X-34928989Y36431969D01*
X-34800000Y36414855D01*
X-34684437Y36407462D01*
X-34533239Y36406950D01*
X-34360180Y36412532D01*
X-34179035Y36423424D01*
X-34003578Y36438841D01*
X-33847583Y36457999D01*
X-33750000Y36474682D01*
X-33329916Y36584659D01*
X-32930522Y36738675D01*
X-32554728Y36934548D01*
X-32205439Y37170095D01*
X-31885563Y37443135D01*
X-31598009Y37751485D01*
X-31345684Y38092963D01*
X-31152482Y38424166D01*
X-31010813Y38726119D01*
X-30900402Y39027875D01*
X-30813528Y39351188D01*
X-30797310Y39425000D01*
X-30766764Y39616013D01*
X-30746994Y39840318D01*
X-30742374Y39966560D01*
X-15335282Y39966560D01*
X-15291148Y39550398D01*
X-15237289Y39282065D01*
X-15113733Y38867268D01*
X-14946667Y38476926D01*
X-14735779Y38110498D01*
X-14480757Y37767440D01*
X-14181289Y37447211D01*
X-14180653Y37446600D01*
X-13850223Y37163165D01*
X-13495072Y36923074D01*
X-13116361Y36726890D01*
X-12715253Y36575179D01*
X-12292910Y36468505D01*
X-12100000Y36435888D01*
X-11924485Y36418727D01*
X-11716477Y36411434D01*
X-11492422Y36413622D01*
X-11268762Y36424900D01*
X-11061942Y36444881D01*
X-10938616Y36463364D01*
X-10530805Y36561363D01*
X-10139354Y36704743D01*
X-9767674Y36890594D01*
X-9419179Y37116002D01*
X-9097282Y37378054D01*
X-8805397Y37673838D01*
X-8546936Y38000442D01*
X-8325313Y38354952D01*
X-8143940Y38734456D01*
X-8079744Y38902988D01*
X-8013012Y39104331D01*
X-7962897Y39287927D01*
X-7927347Y39466967D01*
X-7904306Y39654644D01*
X-7891720Y39864147D01*
X-7887536Y40108668D01*
X-7887500Y40137500D01*
X-7887780Y40206997D01*
X7525071Y40206997D01*
X7541267Y39801323D01*
X7600539Y39400034D01*
X7702056Y39007290D01*
X7844987Y38627246D01*
X8028500Y38264062D01*
X8251764Y37921894D01*
X8513948Y37604901D01*
X8799590Y37329765D01*
X9143735Y37065090D01*
X9509786Y36843336D01*
X9894145Y36665596D01*
X10293216Y36532968D01*
X10703401Y36446544D01*
X11121102Y36407422D01*
X11542721Y36416695D01*
X11732524Y36436917D01*
X12161710Y36518209D01*
X12569991Y36644885D01*
X12956671Y36816590D01*
X13321054Y37032972D01*
X13662442Y37293681D01*
X13934519Y37550384D01*
X14220281Y37881034D01*
X14463310Y38236476D01*
X14662443Y38614446D01*
X14816520Y39012677D01*
X14924379Y39428904D01*
X14940021Y39512500D01*
X14966397Y39717652D01*
X14980993Y39953656D01*
X14983584Y40182908D01*
X30381989Y40182908D01*
X30400473Y39771196D01*
X30463966Y39367042D01*
X30570831Y38973960D01*
X30719436Y38595462D01*
X30908146Y38235062D01*
X31135326Y37896274D01*
X31399342Y37582612D01*
X31698559Y37297589D01*
X32031344Y37044719D01*
X32396061Y36827515D01*
X32446359Y36801768D01*
X32833589Y36634073D01*
X33240587Y36508635D01*
X33655397Y36429095D01*
X33680745Y36425802D01*
X33827493Y36414238D01*
X34008438Y36410612D01*
X34208515Y36414305D01*
X34412658Y36424696D01*
X34605801Y36441167D01*
X34772880Y36463098D01*
X34827561Y36472964D01*
X35242157Y36580369D01*
X35637465Y36732081D01*
X36010405Y36925405D01*
X36357900Y37157648D01*
X36676873Y37426114D01*
X36964245Y37728110D01*
X37216938Y38060940D01*
X37431875Y38421910D01*
X37605977Y38808326D01*
X37657006Y38950000D01*
X37722005Y39156228D01*
X37770154Y39344811D01*
X37803536Y39529710D01*
X37824236Y39724883D01*
X37834337Y39944290D01*
X37836180Y40150000D01*
X37835101Y40326332D01*
X37832244Y40464238D01*
X37826567Y40575285D01*
X37817029Y40671042D01*
X37802588Y40763077D01*
X37782204Y40862958D01*
X37765289Y40937500D01*
X37643264Y41358090D01*
X37478570Y41755789D01*
X37273292Y42127919D01*
X37029517Y42471805D01*
X36749330Y42784771D01*
X36434816Y43064138D01*
X36088062Y43307232D01*
X35788792Y43473819D01*
X35550232Y43585744D01*
X35328920Y43673305D01*
X35103607Y43744046D01*
X34856651Y43804718D01*
X34678479Y43834114D01*
X34465406Y43853604D01*
X34231538Y43863184D01*
X33990983Y43862850D01*
X33757849Y43852600D01*
X33546243Y43832427D01*
X33382789Y43805121D01*
X32960615Y43688892D01*
X32561185Y43530197D01*
X32187038Y43331481D01*
X31840711Y43095189D01*
X31524742Y42823767D01*
X31241670Y42519659D01*
X30994033Y42185310D01*
X30784368Y41823167D01*
X30615215Y41435674D01*
X30489110Y41025276D01*
X30486581Y41014948D01*
X30410146Y40598663D01*
X30381989Y40182908D01*
X14983584Y40182908D01*
X14983809Y40202772D01*
X14974846Y40447259D01*
X14954103Y40669376D01*
X14940021Y40762500D01*
X14842370Y41180182D01*
X14701274Y41577149D01*
X14519543Y41950921D01*
X14299988Y42299016D01*
X14045418Y42618952D01*
X13758644Y42908247D01*
X13442476Y43164419D01*
X13099725Y43384987D01*
X12733201Y43567468D01*
X12345714Y43709380D01*
X11940075Y43808243D01*
X11519094Y43861573D01*
X11424682Y43866950D01*
X10989720Y43861771D01*
X10563437Y43807662D01*
X10148159Y43705185D01*
X9746211Y43554902D01*
X9392259Y43376086D01*
X9060059Y43158568D01*
X8747155Y42899121D01*
X8459372Y42603967D01*
X8202535Y42279328D01*
X7982470Y41931426D01*
X7907679Y41790402D01*
X7743256Y41408760D01*
X7625234Y41014874D01*
X7552783Y40612900D01*
X7525071Y40206997D01*
X-7887780Y40206997D01*
X-7888238Y40320600D01*
X-7891006Y40464597D01*
X-7896637Y40580375D01*
X-7905964Y40678817D01*
X-7919819Y40770805D01*
X-7939035Y40867223D01*
X-7945605Y40897013D01*
X-8061336Y41316136D01*
X-8214901Y41704406D01*
X-8408744Y42066289D01*
X-8645310Y42406254D01*
X-8927044Y42728768D01*
X-8974144Y42776711D01*
X-9291229Y43063210D01*
X-9628362Y43305700D01*
X-9989025Y43506070D01*
X-10376701Y43666210D01*
X-10794870Y43788010D01*
X-10868349Y43804842D01*
X-11044871Y43833990D01*
X-11256443Y43853322D01*
X-11489089Y43862840D01*
X-11728834Y43862544D01*
X-11961702Y43852437D01*
X-12173716Y43832519D01*
X-12342211Y43804701D01*
X-12757833Y43690882D01*
X-13149579Y43535857D01*
X-13515534Y43342619D01*
X-13853783Y43114157D01*
X-14162410Y42853464D01*
X-14439502Y42563530D01*
X-14683142Y42247349D01*
X-14891417Y41907910D01*
X-15062411Y41548206D01*
X-15194209Y41171227D01*
X-15284897Y40779965D01*
X-15332560Y40377412D01*
X-15335282Y39966560D01*
X-30742374Y39966560D01*
X-30738135Y40082357D01*
X-30740317Y40326568D01*
X-30753673Y40557392D01*
X-30778335Y40759268D01*
X-30785627Y40800000D01*
X-30891958Y41225622D01*
X-31041609Y41628485D01*
X-31232267Y42006266D01*
X-31461617Y42356640D01*
X-31727347Y42677283D01*
X-32027141Y42965871D01*
X-32358686Y43220079D01*
X-32719669Y43437582D01*
X-33107775Y43616058D01*
X-33520690Y43753180D01*
X-33788408Y43816463D01*
X-33944852Y43839591D01*
X-34136650Y43855034D01*
X-34349748Y43862794D01*
X-34570093Y43862872D01*
X-34783633Y43855269D01*
X-34976316Y43839986D01*
X-35134088Y43817024D01*
X-35137500Y43816344D01*
X-35567158Y43705665D01*
X-35972677Y43552241D01*
X-36351886Y43358244D01*
X-36702613Y43125847D01*
X-37022685Y42857222D01*
X-37309931Y42554539D01*
X-37562179Y42219972D01*
X-37777256Y41855692D01*
X-37952990Y41463872D01*
X-38087210Y41046682D01*
X-38141484Y40812500D01*
X-38164410Y40657436D01*
X-38179724Y40466895D01*
X-38187430Y40254817D01*
X-38187534Y40035141D01*
X-45650000Y40035141D01*
X-45650000Y64250000D01*
X45650000Y64250000D01*
X45650000Y-64250000D01*
G37*
X45650000Y-64250000D02*
X-45650000Y-64250000D01*
X-45650000Y-16525000D01*
X-40050000Y-16525000D01*
X-40050000Y-21300000D01*
X-32675000Y-21300000D01*
X-32675000Y-16525000D01*
X-40050000Y-16525000D01*
X-45650000Y-16525000D01*
X-45650000Y1221987D01*
X-39443903Y1221987D01*
X-39413158Y822239D01*
X-39331695Y337301D01*
X-39203451Y-133083D01*
X-39030232Y-586159D01*
X-38813843Y-1019174D01*
X-38556091Y-1429374D01*
X-38258782Y-1814007D01*
X-37923722Y-2170320D01*
X-37552716Y-2495559D01*
X-37147571Y-2786970D01*
X-36975409Y-2894012D01*
X-36595127Y-3096535D01*
X-36192083Y-3264029D01*
X-35761619Y-3397988D01*
X-35299080Y-3499906D01*
X-34900000Y-3559718D01*
X-34811965Y-3565557D01*
X-34685250Y-3567523D01*
X-34530993Y-3566041D01*
X-34360329Y-3561534D01*
X-34184396Y-3554426D01*
X-34014329Y-3545142D01*
X-33861265Y-3534104D01*
X-33736340Y-3521737D01*
X-33675000Y-3513101D01*
X-33181532Y-3404902D01*
X-32708065Y-3251994D01*
X-32256935Y-3056122D01*
X-31830474Y-2819031D01*
X-31431017Y-2542467D01*
X-31060898Y-2228176D01*
X-30722450Y-1877902D01*
X-30418006Y-1493391D01*
X-30149902Y-1076388D01*
X-29975521Y-746360D01*
X-29783317Y-292389D01*
X-29638518Y172556D01*
X-29540704Y645072D01*
X-29489457Y1121754D01*
X-29484355Y1599200D01*
X-29524979Y2074004D01*
X-29610909Y2542764D01*
X-29741725Y3002075D01*
X-29917007Y3448533D01*
X-30136335Y3878736D01*
X-30399289Y4289278D01*
X-30634333Y4593573D01*
X-30960572Y4951034D01*
X-31307139Y5265559D01*
X-31680576Y5542276D01*
X-32087428Y5786311D01*
X-32287500Y5888955D01*
X-32745326Y6085405D01*
X-33214397Y6233986D01*
X-33691592Y6334690D01*
X-34173786Y6387510D01*
X-34657854Y6392438D01*
X-35140674Y6349466D01*
X-35619120Y6258588D01*
X-36090069Y6119795D01*
X-36550397Y5933080D01*
X-36621361Y5899480D01*
X-37056733Y5662298D01*
X-37461025Y5387710D01*
X-37832641Y5078611D01*
X-38169990Y4737902D01*
X-38471477Y4368479D01*
X-38735509Y3973241D01*
X-38960492Y3555085D01*
X-39144833Y3116911D01*
X-39286938Y2661616D01*
X-39385214Y2192098D01*
X-39438067Y1711256D01*
X-39443903Y1221987D01*
X-45650000Y1221987D01*
X-45650000Y9479087D01*
X-3925221Y9479087D01*
X-3881985Y9051296D01*
X-3792756Y8638131D01*
X-3659117Y8242345D01*
X-3482651Y7866693D01*
X-3264938Y7513928D01*
X-3007563Y7186803D01*
X-2712107Y6888073D01*
X-2380154Y6620490D01*
X-2013285Y6386808D01*
X-1837500Y6293583D01*
X-1450135Y6127804D01*
X-1047304Y6008994D01*
X-631730Y5937547D01*
X-206138Y5913860D01*
X226750Y5938327D01*
X425000Y5965443D01*
X752891Y6037859D01*
X1091211Y6148540D01*
X1426175Y6292005D01*
X1743999Y6462773D01*
X1862500Y6537011D01*
X2198643Y6786614D01*
X2502654Y7072193D01*
X2772092Y7389564D01*
X3004517Y7734543D01*
X3197490Y8102945D01*
X3348570Y8490585D01*
X3455319Y8893280D01*
X3515295Y9306844D01*
X3520880Y9381250D01*
X3525705Y9725795D01*
X27761106Y9725795D01*
X27762511Y9481965D01*
X27774696Y9248388D01*
X27797679Y9039445D01*
X27819537Y8918538D01*
X27934365Y8496187D01*
X28086143Y8105568D01*
X28277150Y7742387D01*
X28509662Y7402348D01*
X28785958Y7081159D01*
X28804492Y7061861D01*
X29103614Y6779682D01*
X29414069Y6542291D01*
X29743351Y6344621D01*
X30098950Y6181609D01*
X30117054Y6174473D01*
X30525787Y6039129D01*
X30936561Y5952875D01*
X31352865Y5915336D01*
X31778189Y5926139D01*
X32087797Y5962986D01*
X32501097Y6052482D01*
X32898110Y6188804D01*
X33276703Y6370823D01*
X33634743Y6597410D01*
X33970097Y6867435D01*
X34179024Y7069998D01*
X34456504Y7393558D01*
X34690861Y7738628D01*
X34882187Y8101576D01*
X35030576Y8478770D01*
X35136120Y8866574D01*
X35198915Y9261358D01*
X35219052Y9659486D01*
X35196625Y10057326D01*
X35131729Y10451245D01*
X35024455Y10837609D01*
X34874898Y11212785D01*
X34683151Y11573141D01*
X34449307Y11915042D01*
X34173460Y12234856D01*
X34042921Y12363771D01*
X33716912Y12636627D01*
X33360014Y12871652D01*
X32976347Y13066715D01*
X32570031Y13219685D01*
X32200000Y13317152D01*
X32062601Y13338499D01*
X31888153Y13353674D01*
X31689190Y13362676D01*
X31478246Y13365504D01*
X31267856Y13362158D01*
X31070555Y13352638D01*
X30898877Y13336943D01*
X30775000Y13317191D01*
X30346933Y13202402D01*
X29946296Y13046056D01*
X29571388Y12847234D01*
X29220508Y12605016D01*
X28891953Y12318482D01*
X28848923Y12276062D01*
X28564196Y11961231D01*
X28324104Y11629384D01*
X28126157Y11275913D01*
X27967864Y10896209D01*
X27846734Y10485665D01*
X27821387Y10375000D01*
X27790562Y10186693D01*
X27770462Y9965498D01*
X27761106Y9725795D01*
X3525705Y9725795D01*
X3526943Y9814198D01*
X3487394Y10229400D01*
X3401333Y10631488D01*
X3267863Y11025093D01*
X3150914Y11287500D01*
X2943388Y11656646D01*
X2696893Y11997342D01*
X2415064Y12306946D01*
X2101536Y12582814D01*
X1759947Y12822306D01*
X1393932Y13022777D01*
X1007126Y13181586D01*
X603166Y13296091D01*
X315820Y13347957D01*
X109080Y13367536D01*
X-127272Y13374860D01*
X-374461Y13370281D01*
X-613716Y13354154D01*
X-826262Y13326831D01*
X-828766Y13326403D01*
X-1240208Y13231564D01*
X-1632615Y13092914D01*
X-2003300Y12913412D01*
X-2349578Y12696019D01*
X-2668764Y12443695D01*
X-2958171Y12159398D01*
X-3215115Y11846088D01*
X-3436909Y11506726D01*
X-3620869Y11144271D01*
X-3764307Y10761682D01*
X-3864540Y10361919D01*
X-3918881Y9947943D01*
X-3920881Y9918750D01*
X-3925221Y9479087D01*
X-45650000Y9479087D01*
X-45650000Y18077964D01*
X-39444716Y18077964D01*
X-39438788Y17610362D01*
X-39389198Y17149896D01*
X-39297500Y16699233D01*
X-39165247Y16261045D01*
X-38993994Y15837998D01*
X-38785292Y15432764D01*
X-38540695Y15048010D01*
X-38261756Y14686407D01*
X-37950030Y14350623D01*
X-37607068Y14043328D01*
X-37234425Y13767191D01*
X-36833653Y13524880D01*
X-36406306Y13319066D01*
X-35953938Y13152417D01*
X-35478101Y13027602D01*
X-35412500Y13014173D01*
X-35049426Y12959148D01*
X-34662637Y12931079D01*
X-34270927Y12930593D01*
X-33893086Y12958316D01*
X-33858915Y12962400D01*
X-33367180Y13048082D01*
X-32890785Y13180862D01*
X-32432238Y13359513D01*
X-31994046Y13582808D01*
X-31578716Y13849520D01*
X-31188756Y14158421D01*
X-30940650Y14390650D01*
X-30610686Y14754597D01*
X-30322596Y15142577D01*
X-30076560Y15551321D01*
X-29872756Y15977559D01*
X-29711365Y16418021D01*
X-29592566Y16869438D01*
X-29516538Y17328540D01*
X-29483460Y17792059D01*
X-29493513Y18256725D01*
X-29546874Y18719267D01*
X-29643724Y19176417D01*
X-29784242Y19624905D01*
X-29968608Y20061462D01*
X-30197001Y20482819D01*
X-30469599Y20885705D01*
X-30576722Y21023278D01*
X-30912817Y21400830D01*
X-31279088Y21738935D01*
X-31673634Y22036495D01*
X-32094552Y22292418D01*
X-32539939Y22505608D01*
X-33007895Y22674969D01*
X-33496516Y22799407D01*
X-33737500Y22842807D01*
X-33916780Y22864051D01*
X-34128707Y22878164D01*
X-34359715Y22885163D01*
X-34596237Y22885063D01*
X-34824706Y22877884D01*
X-35031557Y22863640D01*
X-35203222Y22842350D01*
X-35211427Y22840966D01*
X-35714559Y22732318D01*
X-36189452Y22583376D01*
X-36639193Y22392813D01*
X-37066867Y22159307D01*
X-37475561Y21881532D01*
X-37512500Y21853565D01*
X-37621503Y21764190D01*
X-37752410Y21647341D01*
X-37894517Y21513447D01*
X-38037119Y21372939D01*
X-38169511Y21236244D01*
X-38280990Y21113793D01*
X-38324451Y21062500D01*
X-38568172Y20734098D01*
X-38792136Y20370879D01*
X-38988836Y19986505D01*
X-39150762Y19594636D01*
X-39185001Y19496888D01*
X-39319376Y19023896D01*
X-39405430Y18550032D01*
X-39444716Y18077964D01*
X-45650000Y18077964D01*
X-45650000Y40035141D01*
X-38187534Y40035141D01*
X-38180040Y39821808D01*
X-38164955Y39628755D01*
X-38142281Y39469924D01*
X-38141004Y39463408D01*
X-38031128Y39034294D01*
X-37877579Y38628114D01*
X-37681718Y38246922D01*
X-37444909Y37892770D01*
X-37168512Y37567711D01*
X-36853890Y37273797D01*
X-36525000Y37028079D01*
X-36164682Y36816380D01*
X-35779456Y36646776D01*
X-35368000Y36518795D01*
X-34928989Y36431969D01*
X-34800000Y36414855D01*
X-34684437Y36407462D01*
X-34533239Y36406950D01*
X-34360180Y36412532D01*
X-34179035Y36423424D01*
X-34003578Y36438841D01*
X-33847583Y36457999D01*
X-33750000Y36474682D01*
X-33329916Y36584659D01*
X-32930522Y36738675D01*
X-32554728Y36934548D01*
X-32205439Y37170095D01*
X-31885563Y37443135D01*
X-31598009Y37751485D01*
X-31345684Y38092963D01*
X-31152482Y38424166D01*
X-31010813Y38726119D01*
X-30900402Y39027875D01*
X-30813528Y39351188D01*
X-30797310Y39425000D01*
X-30766764Y39616013D01*
X-30746994Y39840318D01*
X-30742374Y39966560D01*
X-15335282Y39966560D01*
X-15291148Y39550398D01*
X-15237289Y39282065D01*
X-15113733Y38867268D01*
X-14946667Y38476926D01*
X-14735779Y38110498D01*
X-14480757Y37767440D01*
X-14181289Y37447211D01*
X-14180653Y37446600D01*
X-13850223Y37163165D01*
X-13495072Y36923074D01*
X-13116361Y36726890D01*
X-12715253Y36575179D01*
X-12292910Y36468505D01*
X-12100000Y36435888D01*
X-11924485Y36418727D01*
X-11716477Y36411434D01*
X-11492422Y36413622D01*
X-11268762Y36424900D01*
X-11061942Y36444881D01*
X-10938616Y36463364D01*
X-10530805Y36561363D01*
X-10139354Y36704743D01*
X-9767674Y36890594D01*
X-9419179Y37116002D01*
X-9097282Y37378054D01*
X-8805397Y37673838D01*
X-8546936Y38000442D01*
X-8325313Y38354952D01*
X-8143940Y38734456D01*
X-8079744Y38902988D01*
X-8013012Y39104331D01*
X-7962897Y39287927D01*
X-7927347Y39466967D01*
X-7904306Y39654644D01*
X-7891720Y39864147D01*
X-7887536Y40108668D01*
X-7887500Y40137500D01*
X-7887780Y40206997D01*
X7525071Y40206997D01*
X7541267Y39801323D01*
X7600539Y39400034D01*
X7702056Y39007290D01*
X7844987Y38627246D01*
X8028500Y38264062D01*
X8251764Y37921894D01*
X8513948Y37604901D01*
X8799590Y37329765D01*
X9143735Y37065090D01*
X9509786Y36843336D01*
X9894145Y36665596D01*
X10293216Y36532968D01*
X10703401Y36446544D01*
X11121102Y36407422D01*
X11542721Y36416695D01*
X11732524Y36436917D01*
X12161710Y36518209D01*
X12569991Y36644885D01*
X12956671Y36816590D01*
X13321054Y37032972D01*
X13662442Y37293681D01*
X13934519Y37550384D01*
X14220281Y37881034D01*
X14463310Y38236476D01*
X14662443Y38614446D01*
X14816520Y39012677D01*
X14924379Y39428904D01*
X14940021Y39512500D01*
X14966397Y39717652D01*
X14980993Y39953656D01*
X14983584Y40182908D01*
X30381989Y40182908D01*
X30400473Y39771196D01*
X30463966Y39367042D01*
X30570831Y38973960D01*
X30719436Y38595462D01*
X30908146Y38235062D01*
X31135326Y37896274D01*
X31399342Y37582612D01*
X31698559Y37297589D01*
X32031344Y37044719D01*
X32396061Y36827515D01*
X32446359Y36801768D01*
X32833589Y36634073D01*
X33240587Y36508635D01*
X33655397Y36429095D01*
X33680745Y36425802D01*
X33827493Y36414238D01*
X34008438Y36410612D01*
X34208515Y36414305D01*
X34412658Y36424696D01*
X34605801Y36441167D01*
X34772880Y36463098D01*
X34827561Y36472964D01*
X35242157Y36580369D01*
X35637465Y36732081D01*
X36010405Y36925405D01*
X36357900Y37157648D01*
X36676873Y37426114D01*
X36964245Y37728110D01*
X37216938Y38060940D01*
X37431875Y38421910D01*
X37605977Y38808326D01*
X37657006Y38950000D01*
X37722005Y39156228D01*
X37770154Y39344811D01*
X37803536Y39529710D01*
X37824236Y39724883D01*
X37834337Y39944290D01*
X37836180Y40150000D01*
X37835101Y40326332D01*
X37832244Y40464238D01*
X37826567Y40575285D01*
X37817029Y40671042D01*
X37802588Y40763077D01*
X37782204Y40862958D01*
X37765289Y40937500D01*
X37643264Y41358090D01*
X37478570Y41755789D01*
X37273292Y42127919D01*
X37029517Y42471805D01*
X36749330Y42784771D01*
X36434816Y43064138D01*
X36088062Y43307232D01*
X35788792Y43473819D01*
X35550232Y43585744D01*
X35328920Y43673305D01*
X35103607Y43744046D01*
X34856651Y43804718D01*
X34678479Y43834114D01*
X34465406Y43853604D01*
X34231538Y43863184D01*
X33990983Y43862850D01*
X33757849Y43852600D01*
X33546243Y43832427D01*
X33382789Y43805121D01*
X32960615Y43688892D01*
X32561185Y43530197D01*
X32187038Y43331481D01*
X31840711Y43095189D01*
X31524742Y42823767D01*
X31241670Y42519659D01*
X30994033Y42185310D01*
X30784368Y41823167D01*
X30615215Y41435674D01*
X30489110Y41025276D01*
X30486581Y41014948D01*
X30410146Y40598663D01*
X30381989Y40182908D01*
X14983584Y40182908D01*
X14983809Y40202772D01*
X14974846Y40447259D01*
X14954103Y40669376D01*
X14940021Y40762500D01*
X14842370Y41180182D01*
X14701274Y41577149D01*
X14519543Y41950921D01*
X14299988Y42299016D01*
X14045418Y42618952D01*
X13758644Y42908247D01*
X13442476Y43164419D01*
X13099725Y43384987D01*
X12733201Y43567468D01*
X12345714Y43709380D01*
X11940075Y43808243D01*
X11519094Y43861573D01*
X11424682Y43866950D01*
X10989720Y43861771D01*
X10563437Y43807662D01*
X10148159Y43705185D01*
X9746211Y43554902D01*
X9392259Y43376086D01*
X9060059Y43158568D01*
X8747155Y42899121D01*
X8459372Y42603967D01*
X8202535Y42279328D01*
X7982470Y41931426D01*
X7907679Y41790402D01*
X7743256Y41408760D01*
X7625234Y41014874D01*
X7552783Y40612900D01*
X7525071Y40206997D01*
X-7887780Y40206997D01*
X-7888238Y40320600D01*
X-7891006Y40464597D01*
X-7896637Y40580375D01*
X-7905964Y40678817D01*
X-7919819Y40770805D01*
X-7939035Y40867223D01*
X-7945605Y40897013D01*
X-8061336Y41316136D01*
X-8214901Y41704406D01*
X-8408744Y42066289D01*
X-8645310Y42406254D01*
X-8927044Y42728768D01*
X-8974144Y42776711D01*
X-9291229Y43063210D01*
X-9628362Y43305700D01*
X-9989025Y43506070D01*
X-10376701Y43666210D01*
X-10794870Y43788010D01*
X-10868349Y43804842D01*
X-11044871Y43833990D01*
X-11256443Y43853322D01*
X-11489089Y43862840D01*
X-11728834Y43862544D01*
X-11961702Y43852437D01*
X-12173716Y43832519D01*
X-12342211Y43804701D01*
X-12757833Y43690882D01*
X-13149579Y43535857D01*
X-13515534Y43342619D01*
X-13853783Y43114157D01*
X-14162410Y42853464D01*
X-14439502Y42563530D01*
X-14683142Y42247349D01*
X-14891417Y41907910D01*
X-15062411Y41548206D01*
X-15194209Y41171227D01*
X-15284897Y40779965D01*
X-15332560Y40377412D01*
X-15335282Y39966560D01*
X-30742374Y39966560D01*
X-30738135Y40082357D01*
X-30740317Y40326568D01*
X-30753673Y40557392D01*
X-30778335Y40759268D01*
X-30785627Y40800000D01*
X-30891958Y41225622D01*
X-31041609Y41628485D01*
X-31232267Y42006266D01*
X-31461617Y42356640D01*
X-31727347Y42677283D01*
X-32027141Y42965871D01*
X-32358686Y43220079D01*
X-32719669Y43437582D01*
X-33107775Y43616058D01*
X-33520690Y43753180D01*
X-33788408Y43816463D01*
X-33944852Y43839591D01*
X-34136650Y43855034D01*
X-34349748Y43862794D01*
X-34570093Y43862872D01*
X-34783633Y43855269D01*
X-34976316Y43839986D01*
X-35134088Y43817024D01*
X-35137500Y43816344D01*
X-35567158Y43705665D01*
X-35972677Y43552241D01*
X-36351886Y43358244D01*
X-36702613Y43125847D01*
X-37022685Y42857222D01*
X-37309931Y42554539D01*
X-37562179Y42219972D01*
X-37777256Y41855692D01*
X-37952990Y41463872D01*
X-38087210Y41046682D01*
X-38141484Y40812500D01*
X-38164410Y40657436D01*
X-38179724Y40466895D01*
X-38187430Y40254817D01*
X-38187534Y40035141D01*
X-45650000Y40035141D01*
X-45650000Y64250000D01*
X45650000Y64250000D01*
X45650000Y-64250000D01*
%TD*%
D11*
%TO.P,,1*%
%TO.N,N/C*%
X-36364001Y-32243896D03*
%TD*%
%TO.P,,2*%
%TO.N,N/C*%
X-21759551Y-32243896D03*
%TD*%
%TO.P,,3*%
%TO.N,N/C*%
X-7155101Y-32243896D03*
%TD*%
%TO.P,,4*%
%TO.N,N/C*%
X7449345Y-32243896D03*
%TD*%
%TO.P,,5*%
%TO.N,N/C*%
X22055176Y-32243896D03*
%TD*%
%TO.P,,6*%
%TO.N,N/C*%
X36661004Y-32243896D03*
%TD*%
%TO.P,,7*%
%TO.N,N/C*%
X-36364001Y-46849660D03*
%TD*%
%TO.P,,8*%
%TO.N,N/C*%
X-21759551Y-46849660D03*
%TD*%
%TO.P,,9*%
%TO.N,N/C*%
X-7155101Y-46849660D03*
%TD*%
%TO.P,,10*%
%TO.N,N/C*%
X7449345Y-46849660D03*
%TD*%
%TO.P,,11*%
%TO.N,N/C*%
X22055176Y-46849660D03*
%TD*%
%TO.P,,12*%
%TO.N,N/C*%
X36661004Y-46849660D03*
%TD*%
D12*
%TO.P,,13*%
%TO.N,N/C*%
X-174888Y19180145D03*
%TD*%
D13*
%TO.P,,14*%
%TO.N,N/C*%
X-34464612Y28710621D03*
%TD*%
%TO.P,,15*%
%TO.N,N/C*%
X-11604335Y28710621D03*
%TD*%
%TO.P,,16*%
%TO.N,N/C*%
X11255940Y28710621D03*
%TD*%
%TO.P,,17*%
%TO.N,N/C*%
X34116211Y28710621D03*
%TD*%
D14*
%TO.P,,18*%
%TO.N,N/C*%
X-38150000Y61250001D03*
%TD*%
%TO.P,,19*%
%TO.N,N/C*%
X38049996Y61250001D03*
%TD*%
%TO.P,,20*%
%TO.N,N/C*%
X-38150000Y-61250000D03*
%TD*%
%TO.P,,21*%
%TO.N,N/C*%
X38049996Y-61250000D03*
%TD*%
D12*
%TO.P,,22*%
%TO.N,N/C*%
X-23033784Y9660698D03*
%TD*%
D15*
%TO.P,,23*%
%TO.N,N/C*%
X-17684207Y-58882500D03*
%TD*%
%TO.P,,24*%
%TO.N,N/C*%
X-20184207Y-58882500D03*
%TD*%
%TO.P,,25*%
%TO.N,N/C*%
X-18934207Y-60632500D03*
%TD*%
%TO.P,,26*%
%TO.N,N/C*%
X-20184207Y-62132500D03*
%TD*%
%TO.P,,27*%
%TO.N,N/C*%
X-18934207Y-62132500D03*
%TD*%
%TO.P,,28*%
%TO.N,N/C*%
X-17684207Y-62132500D03*
%TD*%
M02*
