M48
; DRILL file {KiCad (5.1.6)-1} date 02/11/21 15:37:57
; FORMAT={-:-/ absolute / metric / decimal}
; #@! TF.CreationDate,2021-02-11T15:37:57+05:30
; #@! TF.GenerationSoftware,Kicad,Pcbnew,(5.1.6)-1
FMAT,2
METRIC
T1C0.400
T2C3.000
T3C3.200
T4C5.000
T5C6.250
%
G90
G05
T1
X-17.684Y-58.883
X-20.184Y-62.133
X-17.684Y-62.133
X-18.934Y-60.633
X-20.184Y-58.883
X-18.934Y-62.133
T2
X11.256Y28.711
X-34.465Y28.711
X-11.604Y28.711
X34.116Y28.711
T3
X38.05Y-61.25
X-38.15Y-61.25
X38.05Y61.25
X-38.15Y61.25
T4
X-0.175Y19.18
X-23.034Y9.661
T5
X22.055Y-32.244
X7.449Y-46.85
X36.661Y-46.85
X-36.364Y-32.244
X22.055Y-46.85
X-21.76Y-46.85
X-7.155Y-32.244
X-36.364Y-46.85
X7.449Y-32.244
X-7.155Y-46.85
X-21.76Y-32.244
X36.661Y-32.244
T0
M30
