%TF.GenerationSoftware,KiCad,Pcbnew,(5.1.6)-1*%
%TF.CreationDate,2021-02-11T15:37:54+05:30*%
%TF.ProjectId,Valance_Panel,56616c61-6e63-4655-9f50-616e656c2e6b,rev?*%
%TF.SameCoordinates,Original*%
%TF.FileFunction,Copper,L1,Top*%
%TF.FilePolarity,Positive*%
%FSLAX46Y46*%
G04 Gerber Fmt 4.6, Leading zero omitted, Abs format (unit mm)*
G04 Created by KiCad (PCBNEW (5.1.6)-1) date 2021-02-11 15:37:54*
%MOMM*%
%LPD*%
G01*
G04 APERTURE LIST*
%TA.AperFunction,EtchedComponent*%
%ADD10C,0.010000*%
%TD*%
%TA.AperFunction,ComponentPad*%
%ADD11C,6.250000*%
%TD*%
%TA.AperFunction,ComponentPad*%
%ADD12C,5.000000*%
%TD*%
%TA.AperFunction,ComponentPad*%
%ADD13C,3.000000*%
%TD*%
%TA.AperFunction,ComponentPad*%
%ADD14C,3.200000*%
%TD*%
%TA.AperFunction,ComponentPad*%
%ADD15C,0.400000*%
%TD*%
G04 APERTURE END LIST*
D10*
%TO.C,G\u002A\u002A\u002A*%
G36*
X22679523Y46930195D02*
G01*
X22708912Y46881829D01*
X22712500Y46875000D01*
X22751284Y46800000D01*
X22588142Y46800000D01*
X22505192Y46801416D01*
X22446453Y46805122D01*
X22425000Y46810125D01*
X22444417Y46827059D01*
X22492342Y46858519D01*
X22553277Y46895285D01*
X22611729Y46928137D01*
X22652202Y46947854D01*
X22660059Y46950000D01*
X22679523Y46930195D01*
G37*
X22679523Y46930195D02*
X22708912Y46881829D01*
X22712500Y46875000D01*
X22751284Y46800000D01*
X22588142Y46800000D01*
X22505192Y46801416D01*
X22446453Y46805122D01*
X22425000Y46810125D01*
X22444417Y46827059D01*
X22492342Y46858519D01*
X22553277Y46895285D01*
X22611729Y46928137D01*
X22652202Y46947854D01*
X22660059Y46950000D01*
X22679523Y46930195D01*
G36*
X-179640Y46930273D02*
G01*
X-154027Y46886022D01*
X-132190Y46838223D01*
X-125000Y46811324D01*
X-147850Y46805710D01*
X-207812Y46801799D01*
X-292007Y46800423D01*
X-293750Y46800427D01*
X-462500Y46800853D01*
X-337500Y46875000D01*
X-267724Y46915068D01*
X-216274Y46942165D01*
X-197763Y46949574D01*
X-179640Y46930273D01*
G37*
X-179640Y46930273D02*
X-154027Y46886022D01*
X-132190Y46838223D01*
X-125000Y46811324D01*
X-147850Y46805710D01*
X-207812Y46801799D01*
X-292007Y46800423D01*
X-293750Y46800427D01*
X-462500Y46800853D01*
X-337500Y46875000D01*
X-267724Y46915068D01*
X-216274Y46942165D01*
X-197763Y46949574D01*
X-179640Y46930273D01*
G36*
X-23043939Y46930301D02*
G01*
X-23016241Y46882156D01*
X-23012500Y46875000D01*
X-22973716Y46800000D01*
X-23136858Y46800000D01*
X-23219808Y46801450D01*
X-23278547Y46805242D01*
X-23300000Y46810363D01*
X-23280534Y46826189D01*
X-23232387Y46856704D01*
X-23170939Y46892961D01*
X-23111569Y46926011D01*
X-23069658Y46946906D01*
X-23059994Y46950000D01*
X-23043939Y46930301D01*
G37*
X-23043939Y46930301D02*
X-23016241Y46882156D01*
X-23012500Y46875000D01*
X-22973716Y46800000D01*
X-23136858Y46800000D01*
X-23219808Y46801450D01*
X-23278547Y46805242D01*
X-23300000Y46810363D01*
X-23280534Y46826189D01*
X-23232387Y46856704D01*
X-23170939Y46892961D01*
X-23111569Y46926011D01*
X-23069658Y46946906D01*
X-23059994Y46950000D01*
X-23043939Y46930301D01*
%TD*%
D11*
%TO.P,,1*%
%TO.N,N/C*%
X-36364001Y-32243896D03*
%TD*%
%TO.P,,2*%
%TO.N,N/C*%
X-21759551Y-32243896D03*
%TD*%
%TO.P,,3*%
%TO.N,N/C*%
X-7155101Y-32243896D03*
%TD*%
%TO.P,,4*%
%TO.N,N/C*%
X7449345Y-32243896D03*
%TD*%
%TO.P,,5*%
%TO.N,N/C*%
X22055176Y-32243896D03*
%TD*%
%TO.P,,6*%
%TO.N,N/C*%
X36661004Y-32243896D03*
%TD*%
%TO.P,,7*%
%TO.N,N/C*%
X-36364001Y-46849660D03*
%TD*%
%TO.P,,8*%
%TO.N,N/C*%
X-21759551Y-46849660D03*
%TD*%
%TO.P,,9*%
%TO.N,N/C*%
X-7155101Y-46849660D03*
%TD*%
%TO.P,,10*%
%TO.N,N/C*%
X7449345Y-46849660D03*
%TD*%
%TO.P,,11*%
%TO.N,N/C*%
X22055176Y-46849660D03*
%TD*%
%TO.P,,12*%
%TO.N,N/C*%
X36661004Y-46849660D03*
%TD*%
D12*
%TO.P,,13*%
%TO.N,N/C*%
X-174888Y19180145D03*
%TD*%
D13*
%TO.P,,14*%
%TO.N,N/C*%
X-34464612Y28710621D03*
%TD*%
%TO.P,,15*%
%TO.N,N/C*%
X-11604335Y28710621D03*
%TD*%
%TO.P,,16*%
%TO.N,N/C*%
X11255940Y28710621D03*
%TD*%
%TO.P,,17*%
%TO.N,N/C*%
X34116211Y28710621D03*
%TD*%
D14*
%TO.P,,18*%
%TO.N,N/C*%
X-38150000Y61250001D03*
%TD*%
%TO.P,,19*%
%TO.N,N/C*%
X38049996Y61250001D03*
%TD*%
%TO.P,,20*%
%TO.N,N/C*%
X-38150000Y-61250000D03*
%TD*%
%TO.P,,21*%
%TO.N,N/C*%
X38049996Y-61250000D03*
%TD*%
D12*
%TO.P,,22*%
%TO.N,N/C*%
X-23033784Y9660698D03*
%TD*%
D15*
%TO.P,,23*%
%TO.N,N/C*%
X-17684207Y-58882500D03*
%TD*%
%TO.P,,24*%
%TO.N,N/C*%
X-20184207Y-58882500D03*
%TD*%
%TO.P,,25*%
%TO.N,N/C*%
X-18934207Y-60632500D03*
%TD*%
%TO.P,,26*%
%TO.N,N/C*%
X-20184207Y-62132500D03*
%TD*%
%TO.P,,27*%
%TO.N,N/C*%
X-18934207Y-62132500D03*
%TD*%
%TO.P,,28*%
%TO.N,N/C*%
X-17684207Y-62132500D03*
%TD*%
M02*
